<svg width="138" height="40" viewBox="0 0 138 40" fill="none" xmlns="http://www.w3.org/2000/svg">
<path d="M129.73 34.7369H123.604V11.3313H115.733V6.3158H137.6V11.3313H129.73V34.7369Z" fill="#03374C"/>
<path d="M112.533 26.5337C112.533 28.1901 112.119 29.6362 111.289 30.8719C110.459 32.1076 109.255 33.0673 107.676 33.7509C106.124 34.4081 104.224 34.7368 101.976 34.7368C100.985 34.7368 100.009 34.6711 99.0452 34.5396C98.1085 34.4081 97.1986 34.2241 96.3154 33.9875C95.4591 33.7246 94.6428 33.4091 93.8667 33.041V27.4802C95.2316 28.0587 96.6366 28.5976 98.0818 29.0972C99.5537 29.5704 101.012 29.8071 102.457 29.8071C103.448 29.8071 104.237 29.6756 104.826 29.4127C105.441 29.1498 105.883 28.7948 106.151 28.3479C106.445 27.9009 106.592 27.3882 106.592 26.8098C106.592 26.0999 106.338 25.4952 105.829 24.9957C105.348 24.4961 104.692 24.036 103.862 23.6153C103.033 23.1684 102.083 22.6951 101.012 22.1956C100.343 21.8801 99.6206 21.512 98.8445 21.0913C98.0684 20.6443 97.319 20.1054 96.5965 19.4744C95.9006 18.8171 95.3252 18.0283 94.8703 17.1081C94.4153 16.1879 94.1878 15.0836 94.1878 13.7953C94.1878 12.1126 94.5759 10.6797 95.352 9.49658C96.1549 8.28716 97.2789 7.36694 98.724 6.73594C100.196 6.10493 101.922 5.78943 103.903 5.78943C105.401 5.78943 106.82 5.96033 108.158 6.30212C109.523 6.64392 110.941 7.13032 112.413 7.76132L110.446 12.415C109.135 11.8891 107.957 11.4816 106.913 11.1924C105.87 10.9032 104.799 10.7586 103.702 10.7586C102.952 10.7586 102.31 10.8769 101.775 11.1135C101.24 11.3502 100.825 11.6788 100.53 12.0995C100.263 12.5202 100.129 13.0197 100.129 13.5981C100.129 14.2554 100.33 14.8207 100.731 15.2939C101.133 15.7409 101.735 16.1747 102.538 16.5954C103.341 17.0161 104.344 17.5156 105.548 18.094C107.02 18.7776 108.265 19.4875 109.282 20.2237C110.325 20.9598 111.128 21.8275 111.69 22.8266C112.252 23.8257 112.533 25.0614 112.533 26.5337Z" fill="#03374C"/>
<path d="M90.6668 34.7369H73.6001V6.3158H90.6668V11.2517H79.8703V17.5011H88.8205V22.437H79.8703V29.7612H90.6668V34.7369Z" fill="#03374C"/>
<path d="M70.4001 6.3158L60.4308 34.7369H53.6616L43.7334 6.3158H50.0103L55.5078 23.2331C55.6172 23.525 55.7676 24.069 55.959 24.8651C56.1778 25.6347 56.3966 26.4573 56.6154 27.333C56.8343 28.1822 56.9847 28.8987 57.0667 29.4825C57.1488 28.8987 57.2855 28.1822 57.477 27.333C57.6958 26.4573 57.9146 25.6347 58.1334 24.8651C58.3522 24.069 58.5026 23.525 58.5847 23.2331L64.1231 6.3158H70.4001Z" fill="#03374C"/>
<path fill-rule="evenodd" clip-rule="evenodd" d="M18.2695 2.74158C18.2695 2.74158 18.2695 28.3541 18.2695 37.2602C23.5739 34.676 27.0585 32.0248 29.8655 29.1671C31.0929 27.9182 32.1786 26.5611 32.4469 24.584C33.0603 20.0656 33.7055 11.4848 33.7697 8.46233C33.8297 5.66578 33.6088 4.58634 31.0593 3.94455C27.9678 3.16571 22.4768 2.77393 18.2695 2.74158Z" fill="#03374C"/>
<path fill-rule="evenodd" clip-rule="evenodd" d="M18.2685 40C13.7707 40.0006 2.94356 30.7003 1.82003 26.7337C1.0326 23.9495 -0.114934 10.6344 0.00930197 7.12433C0.169549 2.58537 3.18723 1.73946 4.99016 1.23415C8.12428 0.355305 15.6499 0 18.2601 0V2.7389C15.375 2.7389 8.33434 3.1395 5.71698 3.87247C3.65117 4.4519 2.80252 4.91662 2.7203 7.22139C2.60866 10.4174 3.72679 23.4989 4.4296 25.9802C5.24584 28.8638 15.0269 37.2599 18.2673 37.2611H18.2697L18.2715 40H18.2685Z" fill="#03374C"/>
</svg>
